<svg xmlns="http://www.w3.org/2000/svg" width="397" height="397" viewBox="0 0 397 397" version="1.1"><path d="M 197.041 25.437 L 192.860 31.854 197.343 38.537 L 201.826 45.220 204.608 40.860 C 206.139 38.462, 208.245 35.526, 209.290 34.335 C 211.175 32.186, 211.159 32.124, 207.100 26.147 C 204.850 22.834, 202.608 19.875, 202.116 19.572 C 201.624 19.268, 199.341 21.907, 197.041 25.437 M 170.303 48.369 C 157.523 53.809, 155.417 55, 158.581 55 C 162.213 55, 182.108 62.173, 181.738 63.349 C 181.539 63.982, 171.504 66.975, 159.438 70 C 145.920 73.389, 138.651 75.614, 140.500 75.796 C 143.701 76.112, 154.755 78.422, 172.313 82.446 L 183.127 84.924 192.561 80.238 L 201.994 75.551 210.512 79.776 C 215.196 82.099, 220.035 83.996, 221.265 83.990 C 222.494 83.985, 230.623 82.185, 239.330 79.990 C 248.036 77.796, 257.261 75.953, 259.830 75.897 C 264.471 75.794, 264.478 75.788, 261 75.003 C 259.075 74.569, 254.689 73.698, 251.254 73.068 C 243.466 71.641, 223.310 65.503, 221.514 64.012 C 220.566 63.225, 219.985 63.215, 219.513 63.979 C 219.147 64.571, 215.014 66.981, 210.329 69.336 L 201.809 73.617 193.155 69.147 C 188.395 66.689, 184.207 64.233, 183.850 63.691 C 183.489 63.144, 187.327 60.714, 192.462 58.237 L 201.724 53.770 211.033 57.961 L 220.341 62.152 230.482 58.576 C 236.060 56.609, 241.923 55, 243.512 55 C 247.695 55, 245.986 53.948, 232.334 48.122 L 220.169 42.929 210.733 47.617 L 201.297 52.304 193.898 48.263 C 189.829 46.040, 185.600 43.987, 184.500 43.700 C 183.336 43.396, 177.403 45.348, 170.303 48.369 M 196.129 60.934 L 190.893 63.588 196.197 65.785 L 201.500 67.982 207.022 65.737 L 212.544 63.491 206.955 60.886 L 201.365 58.281 196.129 60.934 M 76.834 73.690 C 78.434 76.680, 81.706 94.101, 82.993 106.484 C 83.621 112.525, 84.315 117.648, 84.535 117.868 C 84.755 118.088, 90.605 112.697, 97.535 105.886 C 104.465 99.076, 110.779 93.143, 111.567 92.702 C 114.616 90.996, 112.688 90.257, 104.750 90.088 C 100.213 89.991, 95.414 89.639, 94.086 89.306 C 92.013 88.786, 91.781 88.969, 92.449 90.600 C 92.877 91.645, 93.453 93.287, 93.730 94.250 C 94.383 96.520, 95.601 96.459, 98.727 94 C 101.351 91.936, 104.499 91.380, 105.390 92.822 C 105.670 93.275, 102.167 97.357, 97.606 101.895 L 89.313 110.145 87.587 97.089 C 86.638 89.908, 86.074 83.688, 86.332 83.266 C 86.788 82.525, 122.127 83.739, 124.844 84.589 C 125.651 84.841, 117.997 93.489, 105.667 106.255 L 85.146 127.500 88.823 128.160 C 106.733 131.377, 147.567 157.431, 182.180 187.728 C 187.504 192.388, 191.638 196.718, 191.366 197.351 C 191.094 197.983, 185.951 202.739, 179.937 207.920 C 147.589 235.787, 114.984 256.444, 92.076 263.586 L 83.285 266.326 82.686 282.413 C 82.161 296.506, 80.186 310.537, 77.563 318.800 C 76.963 320.692, 77.118 320.726, 80.716 319.498 C 87.477 317.190, 104.263 314.778, 114.539 314.637 L 124.578 314.500 110.203 300.169 C 102.297 292.288, 95.669 285.997, 95.475 286.191 C 95.281 286.385, 94.983 290.472, 94.811 295.273 L 94.500 304.002 98.312 304.001 L 102.124 304 98.874 299.474 C 95.857 295.273, 95.742 294.830, 97.269 293.302 C 98.797 291.774, 99.502 292.231, 107.094 299.672 C 117.887 310.250, 117.652 310.761, 100.902 313.172 C 94.140 314.145, 88.359 314.691, 88.054 314.385 C 86.919 313.244, 89.133 274.534, 90.406 273.260 C 91.001 272.666, 109.325 289.457, 122.588 302.750 C 127.115 307.288, 131.197 310.992, 131.660 310.982 C 132.122 310.972, 133.584 307.542, 134.908 303.359 C 139.511 288.823, 151.524 268.424, 169.091 245.317 C 181.946 228.408, 200.304 207, 201.950 207 C 202.362 207, 206.480 211.354, 211.100 216.675 C 215.720 221.995, 222.113 229.308, 225.307 232.925 C 246.073 256.439, 261.733 283.037, 268.330 306 L 270.772 314.500 283.136 315.137 C 297.880 315.897, 309.435 317.435, 319.271 319.947 C 323.247 320.963, 326.613 321.690, 326.751 321.562 C 326.890 321.435, 326.146 317.981, 325.099 313.887 C 322.989 305.637, 320 284.259, 320 277.418 C 320 273.081, 319.971 273.044, 317.942 274.760 C 316.810 275.717, 310.070 282.636, 302.964 290.135 L 290.044 303.770 299.014 303.913 C 303.947 303.992, 308.662 304.317, 309.492 304.635 C 311.287 305.324, 311.518 302.493, 309.994 298.485 L 308.989 295.841 305.101 298.920 C 300.933 302.221, 299.515 302.642, 298.436 300.896 C 297.827 299.911, 312.534 284, 314.054 284 C 314.384 284, 315.218 289.063, 315.906 295.250 C 316.594 301.438, 317.412 307.579, 317.724 308.898 L 318.291 311.295 303.895 310.617 C 286.705 309.806, 277.996 308.966, 278.010 308.121 C 278.028 307.044, 315.079 268.553, 317.206 267.402 C 318.991 266.436, 318.678 266.228, 314.602 265.669 C 305.181 264.378, 277.753 251.111, 268.208 243.228 C 265.619 241.090, 258.014 235.220, 251.309 230.184 C 238.935 220.890, 213.707 199.952, 212.468 197.949 C 211.557 196.474, 214.398 193.577, 228.110 182.003 C 259.059 155.880, 288.125 137.812, 311.103 130.413 L 319.705 127.643 320.325 114.072 C 320.961 100.135, 324.135 78.485, 326.073 74.864 C 326.672 73.745, 327.013 72.689, 326.831 72.517 C 326.649 72.346, 323.213 73.046, 319.196 74.072 C 309.924 76.440, 291.685 79, 284.087 79 L 278.242 79 292.865 93.439 C 301.994 102.453, 307.734 107.432, 308.141 106.689 C 308.500 106.035, 308.953 101.542, 309.147 96.704 L 309.500 87.909 305.500 88.569 C 303.300 88.931, 301.342 89.372, 301.150 89.548 C 300.957 89.724, 302.279 91.709, 304.088 93.960 C 307.049 97.645, 307.223 98.205, 305.836 99.592 C 304.450 100.979, 303.533 100.311, 296.632 92.882 C 292.416 88.345, 289.312 84.311, 289.734 83.919 C 290.805 82.920, 315.005 80.198, 315.512 81.019 C 316.013 81.830, 314.034 117.896, 313.376 119.947 C 313.073 120.891, 305.637 114.126, 291.993 100.493 C 280.488 88.998, 270.894 79.796, 270.673 80.046 C 270.452 80.296, 269.248 83.650, 267.997 87.500 C 260.908 109.324, 242.209 139.921, 219.290 167.198 C 209.152 179.263, 202.219 187, 201.545 187 C 200.646 187, 181.234 163.837, 172.801 152.702 C 150.558 123.332, 140.142 104.172, 133.414 80.250 C 133.176 79.404, 130.824 79, 126.137 79 C 112.839 79, 90.524 75.924, 78.137 72.383 C 76.021 71.778, 75.884 71.915, 76.834 73.690 M 198.500 86.848 C 197.950 87.388, 196.375 87.981, 195 88.165 C 192.862 88.452, 193.191 88.767, 197.271 90.341 C 201.903 92.128, 202.170 92.128, 206.508 90.341 L 210.975 88.500 207.738 87.681 C 201.263 86.044, 199.481 85.883, 198.500 86.848 M 213.262 94.787 C 207.054 97.487, 205.428 99, 208.734 99 C 209.688 99, 212.762 100.201, 215.565 101.668 L 220.661 104.337 231.114 101.668 C 236.863 100.201, 243.314 99, 245.450 99 C 247.586 99, 249.131 98.797, 248.883 98.550 C 248.412 98.078, 221.574 91.973, 220.257 92.037 C 219.841 92.058, 216.693 93.295, 213.262 94.787 M 172.500 94.989 C 168.100 95.998, 162.475 97.260, 160 97.792 L 155.500 98.760 160.500 98.883 C 163.250 98.951, 169.479 100.071, 174.341 101.371 L 183.183 103.736 187.841 101.372 C 190.404 100.072, 193.287 99.006, 194.250 99.004 C 195.213 99.002, 196 98.550, 196 98 C 196 97.450, 195.082 97, 193.960 97 C 192.838 97, 190.156 96.100, 188 95 C 183.342 92.624, 182.808 92.624, 172.500 94.989 M 110.143 107.353 C 98.055 119.496, 98.124 119.899, 112.863 123.423 C 118.791 124.840, 124.846 126, 126.320 126 C 128.689 126, 128.993 125.623, 128.939 122.750 C 128.843 117.588, 122.658 98.558, 120.972 98.235 C 120.163 98.080, 115.289 102.183, 110.143 107.353 M 281.990 109.522 C 280.187 113.659, 278.923 117.257, 279.183 117.516 C 279.981 118.315, 294 111.686, 294 110.510 C 294 109.398, 286.909 102, 285.843 102 C 285.528 102, 283.794 105.385, 281.990 109.522 M 195.569 105.161 L 191.638 107.233 195.569 108.682 C 202.421 111.208, 202.948 111.264, 205.322 109.709 C 206.600 108.871, 208.739 108.018, 210.073 107.813 C 212.176 107.491, 211.849 107.145, 207.623 105.221 C 201.699 102.523, 200.582 102.518, 195.569 105.161 M 112.032 109.595 C 112.049 110.093, 112.724 111.374, 113.532 112.441 C 114.339 113.509, 115 115.196, 115 116.191 C 115 118.623, 115.909 118.424, 119.726 115.157 L 122.951 112.395 119.412 112.295 C 117.465 112.239, 115.001 111.406, 113.936 110.442 C 112.871 109.478, 112.014 109.097, 112.032 109.595 M 198.159 120.906 L 194.818 125.808 198.290 130.964 L 201.762 136.120 203.979 132.534 C 205.198 130.561, 206.797 128.346, 207.531 127.611 C 208.646 126.497, 208.293 125.424, 205.407 121.138 C 203.504 118.312, 201.846 116.001, 201.723 116.002 C 201.601 116.003, 199.997 118.210, 198.159 120.906 M 128.716 126.092 C 124.523 130.528, 123.210 132.548, 123.945 133.434 C 125.217 134.967, 139.694 138.639, 140.660 137.674 C 141.883 136.451, 137.606 120.547, 135.973 120.245 C 135.163 120.095, 131.897 122.726, 128.716 126.092 M 62.956 142.700 L 55.663 153.317 59.009 152.648 C 60.849 152.280, 62.434 151.871, 62.531 151.740 C 62.628 151.608, 64.343 148.912, 66.341 145.750 C 68.340 142.588, 70.623 140, 71.414 140 C 72.206 140, 74.239 142.422, 75.933 145.383 C 77.627 148.343, 79.572 151.208, 80.256 151.749 C 81.543 152.766, 87 154.034, 87 153.317 C 87 152.210, 72.316 132.472, 71.358 132.292 C 70.748 132.177, 66.967 136.861, 62.956 142.700 M 315.534 139.322 L 310.607 143.657 315.512 148.357 L 320.417 153.057 324.945 148.528 L 329.474 144 324.967 139.493 L 320.460 134.987 315.534 139.322 M 317.667 140.667 C 317.300 141.033, 317 142.833, 317 144.667 C 317 147.676, 317.281 148, 319.893 148 C 322.808 148, 324 146.556, 324 143.025 C 324 140.595, 319.437 138.896, 317.667 140.667 M 195.595 153.556 C 192.518 158.812, 190 163.312, 190 163.556 C 190 163.800, 195.371 164, 201.936 164 L 213.872 164 208.186 154.010 C 205.059 148.516, 202.205 144.016, 201.845 144.010 C 201.485 144.005, 198.672 148.300, 195.595 153.556 M 69.207 150.934 L 67.117 153.761 69.389 155.896 C 71.593 157.966, 71.713 157.975, 73.331 156.187 C 75.436 153.861, 75.419 153.348, 73.148 150.461 L 71.297 148.107 69.207 150.934 M 333.447 149.500 C 335.701 155.819, 340.958 175.375, 340.519 175.814 C 340.234 176.100, 339.874 176.146, 339.720 175.917 C 338.287 173.782, 327.675 161.992, 327.418 162.249 C 327.233 162.434, 328.342 168.641, 329.882 176.042 C 332.265 187.490, 332.944 189.453, 334.433 189.185 C 336.161 188.874, 363.191 179.142, 363.678 178.656 C 363.816 178.518, 356.910 171.451, 348.331 162.952 C 339.752 154.454, 333.054 148.400, 333.447 149.500 M 286.426 168.404 C 277.667 177.085, 271.400 183.954, 272.500 183.668 C 273.600 183.381, 280.058 181.510, 286.852 179.509 C 293.645 177.507, 299.395 176.062, 299.629 176.296 C 299.863 176.530, 296.460 179.802, 292.067 183.567 C 287.673 187.331, 284.213 190.546, 284.377 190.710 C 284.541 190.875, 285.986 190.559, 287.588 190.009 C 289.190 189.459, 295.675 187.943, 302 186.639 C 311.745 184.631, 313.451 184.001, 313.177 182.510 C 312.899 180.992, 305.419 160.163, 303.140 154.560 C 302.459 152.885, 300.175 154.777, 286.426 168.404 M 106.491 170.722 C 102.646 176.520, 99.350 181.655, 99.167 182.132 C 98.983 182.609, 100.333 182.996, 102.167 182.991 C 105.141 182.983, 105.916 182.336, 109.360 176.991 C 111.483 173.696, 113.571 171, 114 171 C 114.429 171, 116.517 173.696, 118.640 176.991 C 122.051 182.286, 122.878 182.984, 125.750 182.991 C 127.537 182.996, 129 182.760, 129 182.467 C 129 181.675, 115.189 161.235, 114.270 160.667 C 113.836 160.399, 110.336 164.924, 106.491 170.722 M 21.905 169.250 C 18.828 173.788, 15.514 178.738, 14.540 180.250 L 12.770 183 15.907 183 C 18.657 183, 19.541 182.230, 23.083 176.750 C 25.305 173.313, 27.620 170.500, 28.228 170.500 C 28.837 170.500, 30.983 173.198, 32.998 176.496 C 36.166 181.682, 37.157 182.573, 40.331 183.089 C 42.349 183.417, 43.983 183.419, 43.962 183.093 C 43.889 181.940, 29.470 161.657, 28.493 161.331 C 27.947 161.149, 24.982 164.713, 21.905 169.250 M 51 181 L 51 193 44 193 L 37 193 37 206.216 L 37 219.432 31.494 213.994 L 25.988 208.557 23.502 211.044 L 21.015 213.530 46.258 238.753 L 71.500 263.976 96.759 238.770 L 122.018 213.564 119.515 211.060 L 117.012 208.557 111.506 213.994 L 106 219.432 106 206.216 L 106 193 99 193 L 92 193 92 181 L 92 169 89 169 L 86 169 86 175 L 86 181 80 181 L 74 181 74 211.500 L 74 242 78.719 242 L 83.437 242 77.499 248.001 L 71.560 254.002 65.739 248.251 L 59.917 242.500 64.459 242.195 L 69 241.890 69 213.027 C 69 197.152, 69.273 183.452, 69.607 182.582 C 70.120 181.246, 69.267 181, 64.126 181 C 58.432 181, 57.997 180.835, 57.397 178.446 C 57.044 177.041, 57.008 174.341, 57.315 172.446 C 57.862 169.078, 57.796 169, 54.437 169 L 51 169 51 181 M 62 172.500 C 62 175.833, 62.167 176, 65.500 176 C 68.833 176, 69 175.833, 69 172.500 C 69 169.167, 68.833 169, 65.500 169 C 62.167 169, 62 169.167, 62 172.500 M 74 172.500 C 74 175.833, 74.167 176, 77.500 176 C 80.284 176, 81 175.607, 81 174.082 C 81 173.027, 81.273 171.452, 81.607 170.582 C 82.100 169.298, 81.441 169, 78.107 169 C 74.080 169, 74 169.068, 74 172.500 M 318 177.968 C 318 180.947, 320.274 192.551, 321.014 193.351 C 321.623 194.009, 327.804 192.612, 329.846 191.355 C 330.036 191.238, 327.848 188.298, 324.983 184.821 C 318.061 176.419, 318 176.359, 318 177.968 M 26.176 180.504 L 24.029 183.232 26.169 186.237 L 28.309 189.242 30.132 186.871 C 32.406 183.914, 32.407 183.087, 30.139 180.138 L 28.322 177.775 26.176 180.504 M 111.615 180.465 C 109.594 183.549, 109.600 183.675, 111.863 186.553 L 113.726 188.921 115.863 186.646 C 118.450 183.892, 118.473 183.146, 116.056 180.250 C 113.717 177.446, 113.589 177.452, 111.615 180.465 M 158.581 190.750 L 153.034 200.500 159.017 200.798 C 162.308 200.961, 167.643 200.961, 170.873 200.798 L 176.746 200.500 171.123 190.771 C 168.030 185.420, 165.191 181.032, 164.814 181.021 C 164.436 181.009, 161.631 185.387, 158.581 190.750 M 231.156 190.595 C 228.217 195.848, 226.020 200.353, 226.274 200.607 C 226.527 200.861, 231.735 200.940, 237.848 200.784 L 248.960 200.500 243.417 190.750 C 240.368 185.387, 237.564 181.010, 237.186 181.022 C 236.809 181.034, 234.095 185.342, 231.156 190.595 M 307.317 192.822 C 303.366 195.945, 300.104 198.778, 300.067 199.119 C 300.030 199.459, 302.587 199.129, 305.750 198.384 C 308.913 197.640, 313.011 197.024, 314.858 197.016 C 317.923 197.001, 318.163 196.785, 317.600 194.544 C 316.819 191.430, 315.135 186.978, 314.775 187.072 C 314.624 187.111, 311.268 189.699, 307.317 192.822 M 262.430 192.208 L 257.697 196.680 262.285 200.909 C 264.808 203.235, 267.155 205.138, 267.500 205.138 C 267.845 205.138, 270.068 203.348, 272.441 201.161 L 276.756 197.184 271.959 192.460 L 267.163 187.736 262.430 192.208 M 368.599 192.016 C 364.045 196.213, 362.994 198, 365.077 198 C 365.669 198, 367.504 199.350, 369.154 201 C 370.804 202.650, 372.569 204, 373.076 204 C 373.583 204, 375.777 202.273, 377.952 200.162 L 381.907 196.325 377.552 192.051 L 373.197 187.777 368.599 192.016 M 198.626 194.634 C 196.761 197.192, 196.766 197.220, 199.438 199.853 L 202.125 202.500 204.527 199.527 L 206.930 196.555 204.791 194.277 C 202.070 191.382, 200.949 191.447, 198.626 194.634 M 264.415 194.360 C 264.100 195.182, 263.990 196.900, 264.171 198.177 C 264.432 200.018, 265.122 200.500, 267.500 200.500 C 270.262 200.500, 270.500 200.222, 270.500 197 C 270.500 193.923, 270.167 193.462, 267.744 193.183 C 265.996 192.982, 264.779 193.412, 264.415 194.360 M 369.485 194.024 C 369.137 194.588, 369.146 196.388, 369.505 198.024 C 370.047 200.491, 370.655 201, 373.060 201 C 375.321 201, 376.100 200.448, 376.589 198.502 C 376.934 197.128, 376.956 195.328, 376.639 194.502 C 375.985 192.798, 370.470 192.430, 369.485 194.024 M 8.096 196.068 L 5.692 198.070 8.496 200.996 L 11.300 203.923 14.222 201.842 L 17.145 199.761 14.385 196.880 C 11.136 193.488, 11.186 193.495, 8.096 196.068 M 128.683 196.809 L 125.992 199.618 128.870 201.746 L 131.747 203.873 134.544 200.954 C 137.269 198.109, 137.294 197.983, 135.516 196.017 C 133.084 193.330, 131.883 193.469, 128.683 196.809 M 337.707 195.011 C 336.171 195.472, 332.008 196.161, 328.457 196.542 C 324.906 196.922, 322 197.380, 322 197.559 C 322 197.739, 322.955 199.505, 324.123 201.483 C 326.143 204.907, 326.348 205.005, 328.373 203.517 C 329.543 202.656, 332.863 200.374, 335.750 198.445 C 338.637 196.517, 341 194.727, 341 194.469 C 341 194.211, 340.887 194.039, 340.750 194.086 C 340.613 194.133, 339.243 194.549, 337.707 195.011 M 315.500 200.766 C 310.379 202.759, 310.351 202.789, 312.228 204.260 C 313.098 204.942, 315.708 207.728, 318.027 210.451 L 322.243 215.403 321.496 208.951 C 320.345 199.019, 320.266 198.912, 315.500 200.766 M 17.181 205.307 C 15.576 207.016, 15.306 207.906, 16.139 208.739 C 17.839 210.439, 23.380 206.163, 21.857 204.327 C 20.344 202.504, 19.685 202.642, 17.181 205.307 M 121.143 204.327 C 119.676 206.096, 124.979 210.249, 127.061 208.962 C 128.179 208.271, 127.984 207.611, 126.049 205.553 C 123.311 202.637, 122.677 202.479, 121.143 204.327 M 55 204.826 C 55 206.946, 59.839 210, 63.198 210 C 66.202 210, 66.842 209.608, 67.240 207.524 C 67.501 206.161, 67.478 204.811, 67.190 204.524 C 66.322 203.655, 55 203.936, 55 204.826 M 76 207 C 76 209.809, 76.243 210, 79.813 210 C 82.744 210, 84.290 209.306, 86.500 207 L 89.374 204 82.687 204 L 76 204 76 207 M 290.730 209.750 L 275.960 215.298 278.730 217.047 C 280.254 218.010, 287.021 224.130, 293.770 230.649 C 300.518 237.167, 306.028 242.275, 306.013 242 C 305.970 241.176, 300.160 220.581, 299.447 218.722 C 298.178 215.416, 300.852 217.046, 306.809 223.210 L 312.811 229.419 310.924 218.960 C 308.364 204.769, 308.143 203.985, 306.731 204.102 C 306.054 204.157, 298.854 206.699, 290.730 209.750 M 351.500 204.937 C 350.400 205.382, 344.550 206.565, 338.500 207.564 C 332.450 208.563, 327.409 209.424, 327.297 209.476 C 327.185 209.529, 328.370 212.256, 329.930 215.536 C 331.489 218.816, 334.006 225, 335.522 229.277 C 337.038 233.554, 338.598 237.252, 338.989 237.493 C 339.380 237.735, 344.936 232.563, 351.336 225.999 C 357.736 219.436, 364.329 213.364, 365.986 212.507 C 367.644 211.650, 369 210.724, 369 210.449 C 369 210.174, 367.538 210.705, 365.750 211.630 C 362.855 213.128, 343.915 219, 341.978 219 C 341.558 219, 340.928 218.256, 340.579 217.346 C 339.830 215.395, 343.990 211.449, 351.500 206.989 C 356.135 204.236, 356.135 203.060, 351.500 204.937 M 54.500 218 C 56.895 220.500, 58.157 221, 62.074 221 C 66.531 221, 66.796 220.845, 67.213 218 L 67.654 215 59.640 215 L 51.626 215 54.500 218 M 76 218 C 76 220.918, 76.132 221, 80.813 221 C 84.855 221, 86.086 220.520, 88.500 218 L 91.374 215 83.687 215 L 76 215 76 218 M 195.825 227.217 C 192.896 232.287, 190.360 236.758, 190.188 237.153 C 190.016 237.549, 191.554 238.013, 193.604 238.186 L 197.333 238.500 187.166 250.317 C 181.575 256.817, 177 262.331, 177 262.570 C 177 262.809, 178.800 264.631, 181 266.619 C 183.200 268.607, 185 270.534, 185 270.903 C 185 271.271, 183.294 273.515, 181.209 275.888 L 177.417 280.204 180.709 283.797 C 182.519 285.774, 184 287.988, 184 288.718 C 184 289.448, 182.227 291.968, 180.060 294.319 C 176.417 298.271, 176.257 298.680, 177.943 299.732 C 178.946 300.358, 182.560 304.290, 185.975 308.470 L 192.185 316.069 189.673 319.284 C 188.292 321.053, 182.221 328.125, 176.182 335 L 165.202 347.500 169.851 352.500 C 172.408 355.250, 174.766 357.500, 175.092 357.500 C 175.597 357.500, 189.495 341.692, 198.185 331.232 C 199.662 329.454, 201.066 328, 201.305 328 C 201.543 328, 207.518 334.811, 214.582 343.136 L 227.426 358.272 232.257 353.018 C 234.914 350.129, 236.956 347.401, 236.794 346.958 C 236.632 346.514, 230.762 339.634, 223.750 331.670 C 216.738 323.705, 211 316.852, 211 316.440 C 211 316.028, 214.323 311.783, 218.385 307.007 L 225.771 298.323 222.423 294.412 C 220.582 292.260, 219.058 289.765, 219.038 288.866 C 219.017 287.968, 220.752 285.650, 222.893 283.715 L 226.787 280.198 222.893 276.396 C 220.752 274.305, 219 271.838, 219 270.913 C 219 269.989, 220.762 267.641, 222.916 265.695 C 226.762 262.221, 226.797 262.126, 224.883 260.394 C 222.454 258.196, 207.620 240.240, 207.167 238.949 C 206.983 238.427, 208.221 238, 209.917 238 C 211.613 238, 213 237.695, 213 237.322 C 213 236.130, 202.528 218.043, 201.825 218.021 C 201.454 218.009, 198.754 222.148, 195.825 227.217 M 51 225.695 C 51 226.078, 52.209 227.653, 53.687 229.195 C 55.957 231.564, 57.182 232, 61.574 232 C 66.588 232, 66.789 231.893, 67.214 228.994 C 67.457 227.341, 67.433 225.766, 67.161 225.494 C 66.389 224.723, 51 224.914, 51 225.695 M 76 228.500 L 76 232 81.304 232 C 86.053 232, 86.963 231.634, 90 228.500 L 93.392 225 84.696 225 L 76 225 76 228.500 M 191.250 250.417 C 186.162 256.168, 182.007 261.464, 182.016 262.187 C 182.032 263.422, 200.485 285.568, 209.057 294.639 C 212.768 298.566, 212.872 298.847, 211.095 300.139 C 209.662 301.181, 181.736 334.370, 173.099 345.296 C 171.923 346.784, 171.912 347.467, 173.031 349.557 C 173.763 350.926, 174.677 351.923, 175.062 351.773 C 176.412 351.247, 222.022 298.567, 221.762 297.834 C 221.285 296.488, 194.589 265.822, 192.386 264.089 L 190.227 262.390 195.126 256.445 C 197.821 253.175, 200.415 250.368, 200.890 250.207 C 201.366 250.047, 204.210 252.628, 207.211 255.943 L 212.666 261.972 208.381 266.573 L 204.096 271.175 206.298 274.574 C 207.509 276.443, 208.770 277.867, 209.101 277.737 C 210.271 277.275, 222 262.739, 222 261.750 C 222 260.541, 203.073 240.615, 201.560 240.231 C 200.977 240.083, 196.338 244.667, 191.250 250.417 M 319.500 242.997 C 318.400 243.434, 316.358 245.076, 314.962 246.646 L 312.424 249.500 315.145 252.303 L 317.866 255.105 316.704 252.027 C 315.250 248.175, 316.608 245.631, 320.358 245.183 C 325.414 244.579, 325.842 252.185, 320.896 254.735 C 319.191 255.614, 318.984 255.975, 320.179 255.985 C 321.891 256, 325 253.483, 325 252.081 C 325 251.655, 325.918 250.896, 327.040 250.395 C 328.973 249.533, 328.881 249.293, 325.290 245.843 C 322.356 243.024, 321.048 242.381, 319.500 242.997 M 288 265.611 C 288 266.176, 294.990 280.939, 295.737 281.952 C 296.468 282.942, 305.214 273.155, 304.553 272.087 C 303.739 270.768, 291.373 265, 289.362 265 C 288.613 265, 288 265.275, 288 265.611 M 116.064 273.041 C 110.324 274.630, 104.970 276.181, 104.165 276.490 C 103.114 276.893, 104.797 279.225, 110.145 284.776 C 114.238 289.024, 118.782 294.061, 120.241 295.970 C 121.700 297.878, 123.035 299.228, 123.206 298.970 C 123.378 298.711, 124.944 292.875, 126.686 286 C 128.429 279.125, 130.160 272.712, 130.534 271.750 C 131.489 269.291, 128.725 269.538, 116.064 273.041 M 116.590 276.076 C 114.535 282.160, 113.442 288.426, 114.811 286.271 C 115.241 285.595, 117.955 284.695, 120.843 284.271 L 126.094 283.500 121.582 279.076 C 118.378 275.935, 116.931 275.065, 116.590 276.076 M 273 280.578 C 273 281.186, 280.031 296.184, 280.668 296.935 C 281.288 297.666, 289 289.682, 289 288.310 C 289 287.603, 285.861 285.444, 282.025 283.513 C 275.270 280.111, 273 279.373, 273 280.578 M 187.887 289.210 C 185.377 292.119, 182.718 295.471, 181.978 296.659 C 180.532 298.980, 180.402 298.777, 190.803 310.423 L 194.306 314.345 196.653 311.617 C 197.944 310.116, 199 308.544, 199 308.123 C 199 307.702, 197.059 305.332, 194.688 302.857 L 190.375 298.356 194.673 293.472 C 198.563 289.051, 198.843 288.394, 197.621 286.544 C 195.205 282.886, 192.767 283.553, 187.887 289.210 M 242.132 297.341 C 240.547 299.250, 249.829 309.386, 252.296 308.440 C 253.233 308.080, 254 307.577, 254 307.322 C 254 306.570, 244.559 296.026, 243.872 296.013 C 243.527 296.006, 242.744 296.603, 242.132 297.341 M 233.159 299.308 C 232.231 300.426, 232.695 301.457, 235.429 304.357 C 238.744 307.871, 241.320 308.909, 242.398 307.166 C 242.681 306.707, 240.981 304.435, 238.619 302.117 C 235.056 298.620, 234.127 298.142, 233.159 299.308 M 165.572 299.761 C 164.774 300.560, 171.754 306, 173.578 306 C 175.047 306, 174.777 305.366, 172.162 302.667 C 169.258 299.671, 166.763 298.571, 165.572 299.761 M 161 304.561 C 161 305.675, 167.181 311, 168.474 311 C 170.997 311, 165.772 304.686, 163.084 304.488 C 161.938 304.403, 161 304.436, 161 304.561 M 228.254 305.146 C 227.393 306.007, 228.015 307.249, 230.760 310.146 C 234.755 314.362, 234.827 314.395, 236.993 313.026 C 238.225 312.247, 237.796 311.375, 234.540 308.041 C 230.211 303.607, 229.925 303.475, 228.254 305.146 M 154.042 313.098 L 151.016 316.862 154.164 320.010 L 157.312 323.158 161.188 318.917 L 165.064 314.677 162.505 312.005 C 159.091 308.441, 157.632 308.630, 154.042 313.098 M 223.227 310.559 C 222.583 311.709, 223.385 313.150, 226.277 316.041 C 229.537 319.302, 230.524 319.790, 232.126 318.932 C 233.940 317.962, 233.831 317.641, 230.277 313.483 C 226.233 308.754, 224.613 308.082, 223.227 310.559 M 239.850 313.275 L 236.277 317.550 240.144 322.025 L 244.012 326.500 247.957 322.500 C 250.127 320.300, 251.924 318.029, 251.951 317.453 C 251.998 316.442, 244.927 309, 243.920 309 C 243.647 309, 241.815 310.924, 239.850 313.275 M 172.614 313.234 C 170.502 315.933, 170.327 316.603, 171.555 317.291 C 172.589 317.870, 174.019 317.062, 176.364 314.575 C 178.200 312.628, 179.469 310.803, 179.185 310.518 C 177.792 309.125, 174.891 310.324, 172.614 313.234 M 178.115 317.677 C 174.646 321.886, 174.424 322.565, 176.289 323.281 C 176.998 323.553, 179.206 322.283, 181.196 320.459 C 184.640 317.303, 184.728 317.064, 183.022 315.520 C 181.346 314.003, 181.028 314.143, 178.115 317.677 M 218.799 315.629 C 217.296 317.132, 217.464 317.560, 220.987 321.227 C 223.918 324.277, 225.289 325.043, 226.901 324.531 C 228.056 324.165, 229 323.539, 229 323.141 C 229 322.742, 227.071 320.523, 224.713 318.209 C 220.754 314.323, 220.302 314.126, 218.799 315.629 M 162.969 323.127 L 159.500 327.253 163.455 331.654 L 167.410 336.056 171.586 331.801 L 175.761 327.545 172.260 323.273 C 170.335 320.923, 168.237 319, 167.598 319 C 166.960 319, 164.876 320.857, 162.969 323.127 M 230.606 324.015 L 226.891 328.031 230.566 332.515 C 232.587 334.982, 234.541 337, 234.909 337 C 235.276 337, 237.199 335.059, 239.182 332.686 L 242.788 328.372 239.311 324.186 C 237.399 321.884, 235.494 320, 235.078 320 C 234.662 320, 232.649 321.807, 230.606 324.015 M 205.219 323.021 C 204.072 324.857, 205.031 326.282, 215.648 338.523 C 226.751 351.324, 227.432 351.919, 229.170 350.346 C 230.176 349.435, 231 348.269, 231 347.753 C 231 347.238, 226.973 342.152, 222.051 336.451 C 217.129 330.750, 212.353 324.942, 211.436 323.543 C 209.430 320.481, 206.936 320.272, 205.219 323.021 M 196.109 341.571 C 193.309 344.635, 189.400 349.116, 187.423 351.529 L 183.828 355.916 192.455 365.708 C 197.199 371.094, 201.390 375.275, 201.767 375 C 202.143 374.725, 205.574 370.900, 209.389 366.500 C 213.204 362.100, 216.990 357.955, 217.801 357.289 C 219.051 356.262, 217.941 354.544, 210.534 346.039 C 205.725 340.517, 201.658 336, 201.496 336 C 201.334 336, 198.910 338.507, 196.109 341.571" stroke="none" fill="#ffffff" fill-rule="evenodd"/></svg>